#!OML:ASF F:\VICON\USERDATA\INSTALL\rory3\rory3.ASF
:FULLY-SPECIFIED
:DEGREES
27
root 0.9619739626144173 17.911885621186478 -0.4173923879964061 -3.864300475958631 -4.018028045912453 2.1466849177988254
lfemur -4.808410213863681 0.24169075113647454 -26.822721106563094
ltibia 28.033556307942973
lfoot -8.290163101787163 1.8252366499925976
ltoes -1.959859535191723
rfemur -25.030323275451245 -0.37569084051000967 19.908896560734107
rtibia 68.37616583208333
rfoot -8.310773011948214 -4.469807466338587
rtoes 5.345015201037649
lowerback 11.163667835616705 0.5924856193211379 -1.227715147642235
upperback 0.7851759448772264 0.7974768923249214 0.44681794166600497
thorax -5.0356950999607095 0.46379417691504293 1.161845558384599
lowerneck -15.917521645287641 -2.628416499263132 -1.8003890792456279
upperneck 22.12068231550105 -3.2172231226960393 -0.03594056054989958
head 9.736653357902672 -1.6679650228112428 -0.05109912782988674
lclavicle -1.9534120728418856e-15 9.06633072205162e-16
lhumerus -30.6300718351119 -0.32492571368481027 82.84975870455959
lradius 25.18807459862825
lwrist 3.7948587343771525
lhand -26.748286712097663 23.545425355474983
lfingers 7.12502
lthumb 0.02476666270755945 53.860196047113355
rclavicle -1.955032381308799e-15 9.04588659834435e-16
rhumerus -30.95135460919669 -25.427233041466263 -76.78947975793307
rradius 21.548753460014897
rwrist 10.275807288334468
rhand -17.5465258250292 22.120594562734578
rfingers 7.12502
rthumb 8.872550866666025 -7.598073168511977
28
root 0.8667655340627181 17.628579114152064 0.19164586534452432 -3.4958215639390953 -2.6245348114898306 2.583759999177563
lfemur -2.96797005149815 -0.14468795060254758 -27.727447563045292
ltibia 28.43461727100178
lfoot -9.474515677274177 1.9269670741942366
ltoes -1.569171037910572
rfemur -28.084152315297583 -0.988322254885234 20.311578899978212
rtibia 62.54304890871422
rfoot -10.587007501110287 -5.477256788981619
rtoes 2.831467926297213
lowerback 11.51322098780657 0.17592616059554322 -1.9091573608549013
upperback 0.7394026198743227 0.14113801594502629 0.6035593088845046
thorax -5.16040815191899 0.1536344855338324 1.8050642179460485
lowerneck -16.036153485969596 -2.610116784257938 -2.2247689696171093
upperneck 21.85640062534159 -3.163896192893175 0.16309618379472168
head 9.660673012676554 -1.6345691779379288 0.02867356657573618
lclavicle -1.9536456112689255e-15 9.065189312323893e-16
lhumerus -28.422684368710904 -2.2914568294913558 83.0975771317105
lradius 26.735366985964703
lwrist 4.549004772139736
lhand -26.84775745210119 23.903707294578407
lfingers 7.12502
lthumb -0.12995593620878848 54.164348187236065
rclavicle -1.9569329851309977e-15 9.025621829671398e-16
rhumerus -31.76246011152872 -25.01469949688538 -76.75017385581704
rradius 22.101965427329766
rwrist 9.564686239606981
rhand -17.47135237415365 21.606482572691213
rfingers 7.12502
rthumb 8.908694304103099 -8.398249051041622
29
root 0.7724417697514954 17.509058346736797 0.05823591906464465 -3.2035743051960908 -1.8829589874695178 3.0406832320380803
lfemur -0.8069862668622836 -0.755788166861366 -28.623544302010004
ltibia 27.3284643781625
lfoot -10.210579728210057 2.090608166699755
ltoes -1.7815780039870777
rfemur -30.131093170814367 -1.0603497294194266 20.42884972578255
rtibia 54.12428408098479
rfoot -10.467470993403756 -8.677550514429184
rtoes 1.639778970807052
lowerback 11.572128403138038 -0.04181358483496822 -2.2402890086698664
upperback 0.7667053094517274 -0.1925397443424497 0.7265225163132504
thorax -5.049593378083693 -0.023118020236041925 2.178368090635827
lowerneck -16.170875806834452 -2.6797731554647646 -2.611428424998793
upperneck 21.834535283926503 -3.2356447389596332 0.47624340544697236
head 9.72146547939382 -1.6538509883984829 0.13044681060855953
lclavicle -1.9564412189641752e-15 9.038925255647878e-16
lhumerus -26.108973537667932 -3.146108201349035 82.93183485180357
lradius 27.940818670171627
lwrist 5.783090617443994
lhand -27.106813630822447 24.28199643890689
lfingers 7.12502
lthumb -0.2710034975657579 54.963155055592445
rclavicle -1.956853447909821e-15 9.029760951018868e-16
rhumerus -32.3353181718591 -24.529959638217406 -76.72111798896698
rradius 22.537576539390777
rwrist 8.83082847353977
rhand -17.228830392843633 21.799202077275883
rfingers 7.12502
rthumb 9.114034354496345 -8.278763825736874
30
root 0.6273025833334551 17.44972630028025 0.44134366931521285 -2.4848232386950895 -1.5605046383132335 3.008816231585738
lfemur 1.887372304119948 -1.142088603462599 -28.698244460635763
ltibia 24.67727047730701
lfoot -10.413080195999683 2.0983770267342363
ltoes -1.7393071911863462
rfemur -30.56654972797405 -0.0012655104207155432 20.208764470760173
rtibia 43.0373816058508
rfoot -8.980751497679048 -13.087360790184718
rtoes 1.6971117532003415
lowerback 11.211288566754403 -0.1521297669147048 -2.2867429555501753
upperback 0.6992433707111285 -0.34786889915872043 0.9046360475954991
thorax -5.0867448560498625 -0.10785421308691867 2.501423624835201
lowerneck -16.31512485490882 -2.678427185726055 -2.727167752875829
upperneck 21.811415139464355 -3.2266364741017575 0.5455135863689193
head 9.72929592286257 -1.6376311239232912 0.15148368519508948
lclavicle -1.9564800773316356e-15 9.038989994983357e-16
lhumerus -24.17560616890235 -4.002918154382508 82.87319430700971
lradius 28.80184168667309
lwrist 6.565180210364701
lhand -27.171591899834524 25.24699202539644
lfingers 7.12502
lthumb -0.39533618886748356 55.81072372719082
rclavicle -1.9574703938160304e-15 9.023818576723136e-16
rhumerus -32.632569958970436 -24.115843288937462 -76.73723889433113
rradius 22.88726872813581
rwrist 8.566482285586435
rhand -16.890423102130427 22.413361827234286
rfingers 7.12502
rthumb 9.329860375857217 -7.559463384909355
